<svg id="Layer_1" data-name="Layer 1" xmlns="http://www.w3.org/2000/svg" viewBox="0 0 499.96 514.08"><defs><style>.cls-1{fill:none;}.cls-1,.cls-2,.cls-3,.cls-4{stroke:#070707;stroke-miterlimit:10;}.cls-2,.cls-5{fill:#fff;}.cls-3{fill:#bae869;}.cls-4{fill:#168e45;}.cls-5{font-size:63px;font-family:BPGRioni, BPG Rioni;}</style></defs><path class="cls-1" d="M120.26,424" transform="translate(-13.5 -0.04)"/><path class="cls-2" d="M324.7,291s1-39.12,15.6-36.24c0,0,.72,2.16,5.28,1.5,0,0,4.56-2.82,7.26-3.24,0,0,4,.42,6.3.84,0,0,5-4.32,8.94-3.6,0,0,5.34.9,8.22,1.32s11.64-6.42,13-5c0,0,10-2.28,12.36,1.08,0,0,17.94-.24,16.74.54,0,0-.12,1.26,5.4,1.26s-.12-.3-.12-.3,15.36-.36,15.6-2.94a5.7,5.7,0,0,0,3.66-1.74s1.5-4.92,2.7-5.58c0,0,9.6-2.88,10.92-3.78,0,0,5.64-4.44,5.64-7,0,0,.84-6.06-1.5-9.3l.72-4.68s8.52-1.67,9.52-4.4c0,0,9.18.78,10.86-8.94,0,0-.42-5.64-1.74-8,0,0,6.36-1.38,7.92-4.14,0,0-.36-7.8,3.18-10.5s5.28-3.36,7.38-6.06a20.69,20.69,0,0,0,.84-5.1c-.16-1.56,1.32-10.44-4.08-13.2a11,11,0,0,0-6.18-11.4s13.38-4.62,6-14.28c0,0,11.94-4.38-3-17,0,0,2-9.12-7.32-10.74,0,0,.06-5.22-7.38-8.82,0,0,5.94-8.82-7.38-13,0,0,4.08-6.54-3.6-11,0,0,5.94-11.22-21.12-12.18,0,0-2.22-1.38-9-1.68,0,0-5.34-4.56-14.7-5.4,0,0,.36-6.9-12.24-8,0,0-2.1-5.58-11.58-6,0,0,1.86-7.26-7.26-10.62,0,0-.72-5.52-10.74-8A10.27,10.27,0,0,0,371,10.22s-7.26-3.3-10.8-5.4-.3,0-.3,0-9.36-1.44-16.14,2.28c0,0-10-4.14-19.2,6.24a13.46,13.46,0,0,0-8.82,4.2s-4.62-2.7-9.48-2.22-5.1-5.28-13.44-4.68a14.08,14.08,0,0,0-15.42-6.75s-14.28-9.09-24,2.67c0,0-10.5-5.76-11.28,9,0,0-8.46-4.92-16.86-1.86,0,0-10.38-5.64-18.3,1.2,0,0-15.6-6.9-20.52.12,0,0-11.16-3.42-15.18,4.08,0,0-7.74-.6-11.28,6,0,0-21.21,1.09-22.45,6.17,0,.1,0,.21,0,.31-.42,5.34-11.4-14.46-23.1,5.28,0,0-15.06-2.28-17.7,6.9,0,0-9.42,2.22-8.64,8.64,0,0-10.07,4.89-8.76,15.6,0,0-4,2.43-4.26,3.9,0,0-13.83,0-14.79-1.77,0,0-23.3-3.62-22.22,16,0,0,3.23,3,1.91,4.23,0,0-3.06,4.14-.36,7.32,0,0-13.8,7.8-3.66,15.6,0,0-5.1,5.22,1.32,11,0,0-2.88,7.5,2.4,11.4l-1.32,2.88s-18.54,5.76-14,11.58c0,0-14.76,7.56.36,16.32,0,0-3.54,8.58,2.4,10.62a29,29,0,0,0,11.82,3.24s1.62,5,6.06,5.82a18.6,18.6,0,0,0,11.56,3.33,14.08,14.08,0,0,0,10.62,6.24,9.49,9.49,0,0,0,2.1,10.56s-1.56,4.14,3.3,8.22c0,0-11.16,5.28-8.28,12.54a12.72,12.72,0,0,0,7.2,5.46s-.42,5.82,6.06,7.8c0,0,5.1,4,13.2,1.44,0,0,5.82,5.52,15.72,1.68,0,0,8.4,5,19.68.36,0,0,7.41.15,8.58-1.29,0,0,4.19,3.24,7.74,3.28,0,0,.36,4.86,3.42,6.53a6.23,6.23,0,0,0,1.44,8.23s9.86,8.06,14.58,5.09c0,0,7.65-1.62,8-2.79,0,0,8.15,3.69,12.47,2,0,0,7.92-2.3,8.77-4.41l11.39.36s12.15,12.91,12.06,16.42c0,0,1.85,4.55,1.22,6.26,0,0-4.73,4.27-4.1,7.06,0,0-1.71,5.72,1.66,8.55,0,0,11.84,9.9,18,9.45,0,0,6,15.35,6.57,22.1,0,0,2.75,14.85.27,21.69,0,0-2.31,7.17-3.57,12.51,0,0-3.3,11.22-3.66,16.2,0,0-.48,14.88-4.56,14.46,0,0-15.78-5.58-21.12-4.26,0,0-13.56.66-10.62,11.76,0,0-22.86-3.9-21.84,7.62l-20.88.3-12.66-.66s-9.84-5.1-21.54,3.48c0,0-4.56,8.64,0,9.12s0-1.2,0-1.2-3.6.72,5.52,2.4l163.68,1.2H441.14s7.92-1.44,7-7.44c0,0-7-7.92-12-7.68,0,0-17.52-1-46.08,0,0,0-1.44-1.91-6-3.11,0,0,1-3.6-9.6-4.8,0,0,1.68-8.16-10.32-7.68,0,0-8.16-1.68-10.32,2.16,0,0-6.24.23-3.6-2.53,0,0-6.24-22.91-11.76-34.19C338.46,360,324,292.17,324.7,291Z" transform="translate(-13.5 -0.04)"/><path class="cls-3" d="M414.74,272.56" transform="translate(-13.5 -0.04)"/><path class="cls-4" d="M94.94,72.37s-5.58-2-4.59-4.77a7.44,7.44,0,0,0,3.78-.9s-.27-1.17-4.59-4.86c0,0,5.4-8.64,11-4.68,0,0,1.8.53,1.35-1,0,0-4.59-3.19-4.41-4.45,0,0,3.87-5,5.94-3,0,0,8,1.53,8.82.45,0,0,3.69-.14-4.23-5.13a22.44,22.44,0,0,1,12-.45,14.27,14.27,0,0,0,5.49.9s1.08.36.9-.72c0,0-3.78-2.61-1.35-7.74,0,0,7-2,14,7,0,0,3.78,2.25,3.06,3.51l2.83-.06s3.69-4.14,6.84-4c0,0,2.25.27,1.26,4.23,0,0,1.26,1.08,2.16.27,0,0,2.25-5.31,3.51-4.5,0,0,4-.36,6,2.52,0,0,8.91-5.49,9.81-4.32a2.62,2.62,0,0,0,2.54,2.7h.07s2.25-1,1.08-2.79a5.67,5.67,0,0,0-7.93-1.18c-.12.09-.24.18-.35.28a8.15,8.15,0,0,1-4.68,1.62s-6.3-2.79-9.81.72c0,0-6.21-3.15-10.44.36,0,0-1.35-5.4,1.71-7,0,0,5,.62,4.95,3.06,0,0,3.42,1,3.78-.9,0,0,.9-4.5,2.16-5.13,0,0,6,.18,9.09,2.43,0,0,3.42,1,5-.63,0,0,1-1.8-1.26-6.66,0,0,2.7-1.08,3.06,0,0,0,3.15,2.88,5.58,2.88,0,0,4-.09,3.6-1.44,0,0-2.88-6.3-1.8-7,0,0-.09-3.33,5.49,1.26,0,0,2.43,2.79,5,2.7,0,0,2.07-.54,1.8-1.17,0,0-1.08-4,1.17-5.85,0,0,9.81-2.07,9.63,8l3.69-.09s4-7.29,10-7.56a10.52,10.52,0,0,1,.63,8.19l3.33,1.35s7.74-8.91,9.09-8.1c0,0,4.05-1,2.43,8.64,0,0,2.88,1.53,3.69,1.26l11.69-9.1s3.51-.18,3.51.9c0,0,4.5-3.24,1.89-7,0,0,2.25-2,6.12,1.8a8.08,8.08,0,0,0,3.69,1l.54-.06c2-.36,1.53-.27,1.08-1.08,0,0-3.6-5.67-1.08-7.11,0,0,3.33-4.5,7.29.9a29.37,29.37,0,0,0,.9,5.58s1.17,1.62,2.43.9c0,0,4.77-6.84,5.4-5.85a2.36,2.36,0,0,1,2.45,2.26,2.13,2.13,0,0,1,0,.44s-1.71,6.3-1.62,7.65c0,0,1.08,1.89,4,1.08,0,0,9.45-6.3,10.44-4.32,0,0,5,.72-.45,8.37a3.72,3.72,0,0,0,3.51,1.8s7.74-8.1,9-5.22c0,0,1.17,2.52.54,4.14,0,0-9.18,2.34-10.26,3.78,0,0-5.76-.72-7.92,2.7,0,0-8.82-2.43-11.07,2.43,0,0-8.91-4.05-8.55,6.12,0,0,1.44,2.43,3.24,1.26,0,0,.45-8.91,3.15-5.76,0,0,3.69,3.87,4.68,2.79,0,0,1.62-1.62-.36-4,0,0,6.93-3.33,8.19-.54,0,0,1,1.71,2.16,1.35,0,0,2.07-4.77,3.24-4.14,0,0,5.31.27,5.4,3.24,0,0-1.43-7,8.29-6.66,0,0,2.69,2.34,4.76,2.43,0,0,8.19-10.26,11.43-10.53,0,0,3.33-.9,3.6,1.17,0,0,8.55-9.36,12.24-8.28,0,0,.27,3.69,4.68,3.78s.5-7.2,11.75-5.94c0,0,2.2.31,1.66,1.66,0,0-2.88,1.8-3,3.65a4.28,4.28,0,0,0,4.09,1.56,2.21,2.21,0,0,0,.37-.08c2.88-.72,7.52-5,8.42-2.74,0,0,1.21,3.64.4,4.9,0,0,19.48-2.43,7.92,6.93,0,0,16.79-3.1,8.06,6.66,0,0-3.38-.28-2.54,5.36,0,0,17.28-1.44,15.66,1.2l-5.7,4.52,1.8,1.92,15.66-.24s1.26,5.46-3.72,4.68a2.41,2.41,0,0,0,1.68,2.46s16-.42,15.84.84c0,0,1.68,2.28-1.92,3.48a5.41,5.41,0,0,0,5.1,2.16l12.72-.66s-.36,2.58-2.1,2.76c0,0,3.12,2,5.1,1.26,0,0,8.94-3.9,11.58-2.1,0,0,5.34,4.5-2.4,7.62,0,0-1.5,1.44.84,1.71,0,0,13-3.63,5.82,5.19a3,3,0,0,1-3.3,2.46s-7.74-6.66-14.94-1.56c0,0-2.58-5.82-10.26-.9,0,0-1.56-4.2-7.68-2.22,0,0-2.28-3.6-6.18-4,0,0-3.12.54,4.14,5.46a4.64,4.64,0,0,0,1.84,1.59,1.64,1.64,0,0,0,.44.09c1.2.06,2.34-2.82,3.42-1.68a10.32,10.32,0,0,1,3.18,4.86h1.92s2.7-6.48,5.4-3.36c0,0,3.12,2.58,3.72,4.26a2,2,0,0,0,1.38.36s1.68-2.46,1.38-3.66c0,0,3.72-1.8,4.68-.66,0,0,7,2.76,7.14,4.74,0,0,16.14,1.38,12.9,4.44,0,0-5,6.06-9.12,5.88a3.46,3.46,0,0,0,2.16,2.46s9.18-.12,11.52,1.8c0,0,2.34.3,2,1.56,0,0-5.4,3.36-7.26,3.54,0,0,.6,2.1,2.52,2.1,0,0,12,1,11.64,2.22,0,0,1.7,2.88,0,3.72a9.34,9.34,0,0,1-4.51.84v1.58s14.64,4.2,11.16,8.16c0,0-6.12,1.68-12.48,2.76l.12,1.86s12.48,3.12,9.84,7.74a13.63,13.63,0,0,1-6.54,2.16s-3.6-3.36-6-3.84c0,0,.78-1.08-3.78.84,0,0-2.7-5.58-8.82-2.22,0,0-3,2.1-3.78.24,0,0-2.16-.48-1.2,1.8,0,0,1.2,2.22,2.52,2,0,0,5.94-4.62,6.6-2.82,0,0,2.16-.18,1.5,3.66,0,0,.78,1.68,1.44,1.14,0,0,4.8-3.78,5.22-2.52,0,0,1.68-.66,1.26,1,0,0-3.66-.09-3.66,1.61,0,0,12.94,12.4,14.74,13.75,0,0,.63,2-2,2l-10.84.81a1.64,1.64,0,0,0,.63,2.23,1.6,1.6,0,0,0,.63.2s14.3,1.53,14.58,2.74c0,0,.94,1.76,0,2.25,0,0-5.23,2.52-9.09,1,0,0-1.49-.22-.72,1.13a16.53,16.53,0,0,0,10,2.83s1.62,6.3-9.14,8.19L471,174s-1.76.54,0,1.62c0,0,1.66,2.16,7.6,2.83,0,0,1.35,5.22-2.07,6.84a16.8,16.8,0,0,1-8.73.27s-1.85-1.62-8.51-.81c0,0-2.2-.13-1,1.8,0,0,13.19,5.18,11.07,14.31,0,0,.81,2.79-5.85,1.94,0,0-2-2.84-6.79-1.71,0,0-1.8.58-.5,1.21,0,0,3.47,3.15,2.66,4.32,0,0-1.26,1.49-5.4,1.49,0,0-10.85-1-11.61-1.13,0,0-1.44-.27-.18,2.12a92.21,92.21,0,0,0,7.87,5.76s.14,2.79-5.13,3.51c0,0,10.94,8.46,6.48,8.41,0,0-2.92,8.06-13.63,5.18,0,0-2.57-1.26-2.88,2.25,0,0,1.62,1,1.21,4.05,0,0-3.19,6.16-17.23,6,0,0-1.49-6.75-5.9-5.44a25,25,0,0,1-7,4.27,9.9,9.9,0,0,1-6.72-1.3s1.57-4.19-1.78-6.1c0,0-3.94-2.29-7.56-1.46,0,0-.86-3.56,1-4.16,0,0,1.91-1.31.74-3l-7.22.14s.67-2.5-.95-2.5c0,0-9.92,5.47-10.64.61,0,0,1.87-1.33,1-2.89,0,0-2.4-1.8-3.9-.06,0,0-.36-2.34-1.32-2.34,0,0-1.56-1-2.1,1.5,0,0,1.38,4.32,5.22,5.76a6.66,6.66,0,0,0,3.54,1.56l11.82.3s1.32,0,.12,1.68l.06,3.54s.43,1.57,1.43,1.6l4.3.29s1.44,1.62-1.29,2c0,0-2.37,1.8-6.93,1.26a3.93,3.93,0,0,0-2.4-4.26s-3.9-1-4.11,3.54c0,0-2.94,8.82-6.75,7.56,0,0-.27-8.34-6.6-6.39l-8.76,7.59v.12s-6.15-3.42-9.15-3.09c0,0-2.13-1-1.53,4.77l-2.19.3a12.29,12.29,0,0,0-6.36-3.6s-.15-2.58,1-3.06l9-10.77s-.57-3.84.93-4.38l3-1s-1.56-2.52-.36-3l2.1-1.38,2.94-2.28,12.12-10.86,19.08-16,5.82.42,1,2.46,4.38,2.52,3.24-.42,3.84-2.52,4.14,4.08,4.62.36,4.2-1.68,2.1-3.84-.06-2.28,5.76.3,5.16-3.48.54-2.76-1-1.44-2.58-.48-1,.36.78,1.44,1,.72v1l-1.38,1.62-2.28.9-3.48.12-4.5-1.86-1.32-.6-.84.72.66,1.14,1.44,1.26.18,1.74v2.46l-.6.9-.84,1.26-2.16.66-3.36-.36-1.74-1.74-.78-2.4-.84-1.5h-.72l-.84.6-2.64,2.34-1,.84-1.5.3-2-.24-2.16-1.26-.42-.78.06-1.08,4.08-3.66.24-1-1.08-.54-2.28.72-3.3,2.82-1.56.6-1.2-.36,1.74-1.2.9-1.32-.72-.66-2,.72-1.08.3-.54-.36.36-1.38,1.62-1.74,1.08-.84,1.08-.84-.84-1-1.32-.18-2.1,1-3.35,1.31-1.08.54-1.5-.12-.48-1.32,1.08-2.94-.42-.72-1.74-.24L379.6,182l-.54,2-.42.21-2.31-.12-2-1.5v-1.05l2.52-2.37,3.69-2,1.56-1.68-.48-1.17-1.2-.78-1.23.39-1.74,2.13-1.95,1.08-2.19.12-2.4-1-.72-.66.84-.81,1.68-1.2.54-1.41-1.08-.51-2.88,1.56-.27-1,1.29-1.14s2-2.1,1.86-1.71,1.14-.09,1.14-.09H374l2.25.3,2.49.06,2.55-1.83,2.22-3.18-.48-3.15-2.1-1.62-2.52-2.34-2.22-1.38-1.56-.24-.63.45v.54l.63.75,1.47,1,2.82,2.25,1.47,1.53.54,1.17-.06.78L380,166l-1.86,1.26-2.52.36-2.46-.66-1.44-1.77L370.25,164l-.87-.24-.57.6v1.11l.51,1.08-.06,1.38-.18,1.23-.75,1.5-.54.63-1-.09-.85-.68-1.05.09-.51,1-1.08.57-1.65-.78-1.38-1.56-.21-1.59.72-.69.6-1-.48-.69-1.32.15-1.08.81L355.65,169l-3.87,2.34-.39.42-1.11.18-.84-.33-.54-1,.54-1.23,1.68-2.49.48-1.05-.21-.9-.78-.39-1.11.24-.66.9-.45,1L347,168.38l-1.35,1.47-1,.45-1.8-.09-2.55-.75-.9-1.56-1.11-1.47-1.44-.51-.45,1.23v1.44l-.36,1.11-1.11,1.07-.39.57-.75.57-1,.21-1.17-.3-1-1.56-.6-1.62-1.09-1.53-1-.81-1.2-.12-.69,1.08-.09,1.62-.3,1.2-.93.72-1.74.87-.45,1.05.78.63h.6l.9-.45.81-.78.54-.81.9-.18.45.75v1.35l-.3,1.26-.63,3.63-.69,2.28-.69,3.6-.42,2.55-.57,4.59-1.62,7.5-1.66,4.27-1.38,3.56-1.39,3.92L315.56,216l-1.76,3.5-.81,1.76-1.75,1.39-2.12.5H307.5l-1.17-.63-.31-1.85-.08-3.17-1.35-.85-1.89,1.48-2.07,1.17-2.43,1.35-1.71.45-1.44-.81-1.22-1.62-1.12-2.29-1.13-.45-.76,1.93-.41,1.85-3.06.9-2-.59-1.62-2.79-.45-2.47-1.12-.86-.9.32-.63,1.44-.41,1.48.27,1.67.9,1.48,1.4,1,1.66.72,1.53.45,1.8.27,1.85-.18,1.12-.85.9-.41,1.13.45,1.3.68,1.62.76,1.76-.18,2-.45,1.44-.85,1.26-1,1-.27.41.9.09,1,.36,1.39.76,1,1,.81,1.17.27,2.07.14h1.31l-1.67,1.39-1.84,2.39-2.07,2.25L300.83,236l-3.1,2.3-3.68,3.14L288.78,246l-4.5,2.7-2.88,2.34-.94.36-.88-.63-1.64-1.11-1.48-.77-2.21-.22-1.89.22-2.79.5h-1.93l-2-.32-1,.18-1.89.81-1.26.77-2.16.58-1.53-.36c-.23,0-2.7-1.08-2.7-1.08l-3.42-2.07-4.07-4.44-4.37-8.69-1.93-5.44L239.87,225l-.68-2,.81-3.87.05-9.27v-2.74l1.08-3.51,1.49-2.43,1.26-2.3.4-1.75,1.44-.77,1.49.36,1.48,1.17,1.49.18,2.07.23,1.48-.27,1.17-.14.86,1.71,1.39,1.76,4,1,2.48-.13,2.16-.32,1.44-1,1.35-1,1.17-.13a17.48,17.48,0,0,1,1.53,1A19.34,19.34,0,0,0,274.2,202l2.7-.14,2.68-.49,1.55-.84,1.13-1.41,1-.27,2.56.36,3.24.36,1.71-.68a7.7,7.7,0,0,1,1,1.13c0,.13-.22,2.2-.22,2.2l.72,2.57,2.2,1.26,3.06.49.5,1.58,1,1.71,2.84.67,1.48.18,2.66-.85a5.24,5.24,0,0,0,.94,1.39,8.82,8.82,0,0,0,1.89.45l2.75-.27,1.75-.58,1.71-1.58.23-1.66.31-2.21-.67-.72-1,2.52-1.48,1.94a8.78,8.78,0,0,1-2.21.4,10.1,10.1,0,0,1-2.16-.63l-.85-1.12-1,.36-1.4.81-2-.27-1.66-1.31-.54-2.43-.86-1.35-3-.76-2.2-.68-1-1.6v-5.19l-1.75.31-4.59,1.22h-3.06s-1.67-.54-1.8-.54l-1.85-.13L279,198l-2.66.85-3.43.65-2.65-.72-2.35-1.28-2.43.54-.94,1.35-3.33.67-2.07-1.12-2.25-2.07-.77-.9-2.2-.18-3.33,0-.63-2,.81-4.5.85-4.1,1.35-3.24.77-2.07,1.21.09,2.61-.09s1.49-.36,1.62-.36,1-.45,1.17,0,.72,2.16.77,2.3a25.13,25.13,0,0,0,2.25,1.75,22.82,22.82,0,0,0,3,1.08,13.71,13.71,0,0,1,1.57.18c.23.09,2.34.18,2.34.18l1.8,0,1.62,1.75s2.12,1.13,2.39,1.35a17,17,0,0,0,2.52.77h1.8l2.11-.23,2.3-1.08.76-2.25.59-1.44h1.74l2.07.9,2.43.05,3.1-.27,1.08-2.12.14-2.7-.95-2.43-1-1.71-2.21-.49-1,.72v1.12l.85,1,.95,2s.22,1.66.22,1.8-.4,1.53-.4,1.53l-1.4.22-2.11-.22-2-1.22-2.7-1.62-1.8-.4-1,.31-.09.81.63,1.8.05,1.49-.41,1.62-1.17.85-1.84.09-2,.09-1.57-.85-.95-1v-.75l.81-1.44.72-1.76-.54-1.26h-1l-1,.5-.91,1.16-.49,1.22-1.8.27h-2l-2.34-.72-1.84-1.17-.9-2.16.31-2,.72-1.58-1-1.17-1.49-.22-.87,1.33L260.7,177l-2,.86-2.33.45-1.58-.45-.67-2.12-.18-1.8-.68-.85-1.66.63-1.66,1.16-3,1.76-2.16.76-1.4.14-.72-2v-2.29l.54-1.89.45-1.62-.5-.9-1.12-.09-1.49.67-1.17,1-.49,1.3-1.17,1.53-1.76,1-1.35,1.39-1.21.77-1.44.09-.63-.59.22-1.39.72-2,.18-2.16-.36-.81h-.81l-1.26.5-1.21.58-2.21,2.21-2.65,2-1.57-.63.27-2.88.72-3.15-.63-1.62L220.48,168l-1.17,2.2-1.53.14-4.14-1.89-3.92-1.76-2-.49-.54,1.21.85.95a23.79,23.79,0,0,1,2.08,1.17c.14.17,1.25,1.12,1.25,1.12l-.17.77-2.62.45-3-1.08-2.65-1.17-1,.45.58,1.71,2.25,2.07,1.13,2.2v1.53l-.67.63h-2.07l-4.86-1.71-2.2-1.17-1.13-.54-1.76.13s.77,1.8.81,1.94,1,1.89,1,1.89v1.66c-.63-.15-1.24-.33-1.85-.54-.22-.13-3.37-2.2-3.37-2.2s-1.53-.9-1.71-1S186,176,186,176l-1.08.68s.46,1.84.5,2.29.13,1.62.13,2a7.63,7.63,0,0,1-.45,2c-.13.09-.67,1-.85,1.12a12.9,12.9,0,0,1-1.26.32l-.32-.59-1.48-1.53-1.8-2.34-.54-.36-.9.23s-.36,1.08-.41,1.26-.54,1.71-.54,1.71-.31.85-.4,1c-.13.44-.28.88-.45,1.31-.14.13-.58.4-.86.63a8.24,8.24,0,0,1-.9.54s.32.13-.31,0a2.14,2.14,0,0,1-1.09-.75,21.94,21.94,0,0,1-1-2.34l-.32-1.94-.13-1.08-.94-.72-.59-.22h-1.4L168,181a12.9,12.9,0,0,1-1.39,2.12,29.18,29.18,0,0,0-2.53,1.89c0,.18-.9,1.26-1.39,1.3s-1.53-3.24-1.53-3.24l.09-1.8.63-2.2,2.66-5,1.08-2.7-.59-.86-1.85-.22s-1.07,1.93-1.17,2.07-1.84,3.06-2,3.42-1.17,3.91-1.17,4.09-.45,2.88-.45,3.11.85,2.83.85,2.83l1.26,1.53,1.22.86,1.53.13L165,188l1.75-2,.85-1.35s1.49-.77,1.62-.77a7.06,7.06,0,0,1,1.17,1.49l.73,1.84,2.38,1,1.39.09,1.62-.27,2.08-1,1.3.85s.23.5.32.77a17.06,17.06,0,0,0,.89,1.48s3.2,7.29,3.29,7.47L191.17,211l2.66,7.15-.05,1.58-1.71.18s-1.57-.81-1.71-.81a21.82,21.82,0,0,0-1.71,1.62s-.13,2-.13,2.25-.45,2.11-.45,2.11l-1.4-.58a11.39,11.39,0,0,0-2.47-1.85c-.59-.09-2.52-.54-2.57.18a23.72,23.72,0,0,0,.14,2.57l.13,2.29s-.45.72-.31.86-.23.76-.23.76a14.22,14.22,0,0,1-2.52-.22c-.36-.18-1.17-.9-1.3-1a16.26,16.26,0,0,1-1.31-1.57l-1.26-2-1.21-1.76-1.08-.13s-1,1.39-1,1.53,0,2.25,0,2.61a1.35,1.35,0,0,1-.31,1,2.24,2.24,0,0,1-.9.54l-2.07-.81v-1.89a6.27,6.27,0,0,0,0-1.62,5.74,5.74,0,0,0-1.17-.63,11.23,11.23,0,0,0-2.2,1.08c-.05.14-.9,1.17-1,1.31a2.9,2.9,0,0,1-1.26.54,16.67,16.67,0,0,1-2.34-.32,7.91,7.91,0,0,1-1.35-.36,7.23,7.23,0,0,1,.36-1.84,9,9,0,0,0,.94-1.26l-.72-.54a8.11,8.11,0,0,0-1.17-.41c-.18,0-1.3,0-1.39.5s-.63,3.24-.63,3.24l.22,2,1.49,1,2.47.45s1.89-.09,2.3-.09.94-.67,1.39-.58,1.53.22,1.53.22l.36,1.35,2,1.26s1.84.14,2.16.14a8.35,8.35,0,0,0,1.39-.36,12.66,12.66,0,0,0,1.08-.72,6,6,0,0,0,.5-.63s.45-.41.58-.41a14.35,14.35,0,0,1,1.44,1.58l2.48.81,2,.13,2,.27,1.71-.58,1.26-1.4.9-2.07.13-.4,2.88-.81,1.8-.72.54-1.94s.23-1.26.36-1.26h2.34a9.32,9.32,0,0,1,1.58,1.62c.22.5,2,3.92,2.11,4s1.53,7.79,1.53,7.79,1.62,5.62,1.67,5.89,1,5.31,1,5.63v3.9s-.58,1.35-.72,1.35-2.79.72-3.1.77-3.11-.45-3.11-.45l-2.34-1.26-2.11-2.61-2.16-.18-2.16.58-.72,1.22-.32,1.3-.36,1.4-1,1.62-1.89,1.12-2.52.81-2.75.5-1.08-.86-.09-1.71.81-2.07.23-1.8-.63-1.57-1.49-1-1.44.18-1,1.12L170,251.82l-4.36,2.79L162.54,257,160,258.17,158,256.1l-.63-2.79,1-3.15,3.47-2.93,1.17-2.34-.54-1.39-2.52-.18-2.43.94a8.75,8.75,0,0,1-1.85,1h-1.93l-.14-1.76,1-1.62,2.21-4.72-.36-1.62-1.71-.77L153,235.89s-1.58,1.44-1.71,1.49-3.15,1.53-3.15,1.53l-1.89.63-4-2.66-2.16-3.15-3.46-5.35L134,226.47l-3.1-.63L129,224.76a17.84,17.84,0,0,1,.76-2.12c.14-.09,2.52-1.89,2.52-1.89l3.06-.54,1.22-1-.77-1.44-2.29-.72,1.57-1.66,2.25-2s2.57-.86,2.75-.86,2.83.77,2.83.77l1.35-.46.09-.89L143,210.73l-4-.18-2.38,1-3.29,1.71L132,214.92l-1.39,2.61-.18,1.53-1.5,1.54-1.66,2.61a8.06,8.06,0,0,0-.59,1.84c.09.23.81,1.58.81,1.58s2,1.8,2.21,1.93a13.44,13.44,0,0,1,1,3.15,8.37,8.37,0,0,1-.4,1.85,14.12,14.12,0,0,1-1.26,2.07,16,16,0,0,1-1.53.49l-1.22.23-1.89-.77-2.52-3.42-2-1.84-1.85-.27-1.84,1.62-.09,2.07.45,2.16-.41,1.89a17.19,17.19,0,0,1-1.75.27,20.16,20.16,0,0,1-1.62-1.31l-2.25-1.89.36-3,.36-2.34L110,228.21l-1.71.32-2.06,2.94-2.21,3.11-3.33,2.47-2.65-.76-.32-2.39,1.08-3.06.23-3L98,226.47l-2.75.54-3.37,2.75-3.6,2.74-1.85,1.71s-2.38-.45-2.52-.54-1.39-1.66-1.12-1.8,2.47-3.1,2.47-3.1l1.67-2.16L86.74,225,85,224.54l-6.34.93-2.7-.06s-1.17-1-.54-1.44,7.53-6,7.53-6l7.38-3.57,4.59-3.12.54-1.71-1.8-1.11-4.59,1.14s-4.59,1-4.74,1-2.7-1-2.7-1l-.42-2a4.53,4.53,0,0,1,2.1-2.28c1.41-.57,6.09-6.24,6.09-6.24s.45-1,.09-1.47a8.91,8.91,0,0,0-2-1.38L84,197.47l-2.52,2.07-2.79,1.8-.93-3.27,1.2-4.38,3.57-5.55,3.06-3.93-1.56-2.58a14.53,14.53,0,0,1,.93-1.74c.12,0,4.29-1.62,4.29-1.62s2.37.75,3.24,1,2.13.57,2.13.57l.69-.3s.93-1.92,1-2a19.08,19.08,0,0,1,1.92-2c.12,0,3.12-.45,3.12-.45l3,.36s.72,1.35.75,1.44.45,1,.93,1.11a3.61,3.61,0,0,0,1.53.15,3.9,3.9,0,0,0,1.17-1.44c.18-.39.57-3,.81-3.06s2.31-1.68,2.31-1.68a11.5,11.5,0,0,1,2.31-1.32c.51-.06,3.39-.63,3.48-.63s2,1,2.1,1.11.75,1.44,1.11,1.59,1.59.51,1.59.51a7.77,7.77,0,0,0,.93-.21,12.16,12.16,0,0,0,.48-1.44l-1.5-2-2.7-1.2-3.54-.24-3.87,1.14a33.27,33.27,0,0,0-3.69,2.28c-.12.18-1.74,1.59-1.74,1.59H102s-3.39-.09-3.48,0a18.77,18.77,0,0,1-2,1.32c-.32.12-3,2.13-3,2.13l-2.13.45a10.08,10.08,0,0,0-2.19-.33c-.33.12-4,1-4,1L82.47,179l-2.34,1.41-2.31,2.52-4.69,3.53-1.71,1.14-1.74.87-1.32-.75-1.14-2,.21-2.88.75-4.32.39-1.77-.39-1.41-1.44-.48s-1.86.72-2,.81l-1.8,1.66-4.45,3.13-2.67,1.47s-2.19-.57-2.31-.66-1.65-1.89-1.65-1.89l-1.56-1.95.3-2.31s1.41-2.58,1.5-2.64,2.22-2.76,2.22-2.76l-.66-1.65s-1.17-.51-1.77-.18-5,2.37-5,2.37l-3.27,2.1s-2.31.21-2.73.21-4.77-.69-4.77-.69l-1.35-1.83,2.17-3.1,2.25-2.82.39-1.71-.42-.84-2.64-.27s-2.85-.81-4.11-1a5.62,5.62,0,0,1-2.4-1.35l-.63-1s.69-1.5,1-1.62,3.42-2,3.42-2l4.08-.93s3.6-.48,3.75-.54,2.73-.57,2.73-.57l.9-1.65-.84-.72s-2.34-.15-3.3-.15-4.32-.12-4.32-.12-.24-1.2.21-1.35,4.47-2.52,4.8-2.55,4.17-1.08,4.41-1.08,3.69.63,4.26.78,4.2.87,4.5.9,3,.12,3,.12l.63-.12.18-1.89-2.07-.69L53.06,143l-2.88-1.65-1-1.32s1-1.83,2-2.19S55,135.9,55,135.9s2-.3,2.43-.3a11.46,11.46,0,0,0,1.83-.39c.12,0,1.89-1.47,1.89-1.47l-1.2-1.43-2.37-.6L55,131.56l-3.63-.21-2.79-.63-1.24-1.25,1.61-2.5,2.62-1.5L56,122.56l2.52-2.09.12-.93-2.88-1H51.94s-3.63.18-4.38.18a10.19,10.19,0,0,1-2.19-.48,9.94,9.94,0,0,1,1-1.77c.24-.15,2.7-2.25,2.7-2.25s4.35-3,4.5-3,3.37-1.75,3.37-1.75l1.11-1.14-.75-1.23L54.06,107c-.12,0-4.8,1.08-4.8,1.08l-5.07.21a9.82,9.82,0,0,1-1-.81s.15-1.71.81-1.92a32.07,32.07,0,0,0,3.18-1.8l2.51-1.83s4-1.08,4.23-1.17,4.14-1.13,4.14-1.13l1.88-1.43-.4-1.3-3.74-.54H52l-1.9-1.58s-.44-1.44.37-1.57,4.27-1.31,4.27-1.31L56,91.31l-.09-1.12-3.11-1.94-4.23-3.6.63-3.73,1.35-1.76a22.37,22.37,0,0,1,2-1.12c.16,0,3-.86,3.15-.86l4.77-.13s1.71-.14,1.89-.14a20.66,20.66,0,0,1,3.6,2.25c.27.41,1.67,2.3,1.67,2.3s.94,1.35,1.84,1.57a12.48,12.48,0,0,0,2.2.27l.63-1.3.09-2.12s2-1.08,2.21-1.12,4.72,0,4.72,0h1.85c.22,0,2.84.94,2.84.94l2.29,1.67s1.53.4,1.67.4,1.88-.85,1.88-.85S92,79.12,92.11,79s4-1.13,4-1.13l4,1a6.94,6.94,0,0,1,1,1.35c0,.23-1.49,2.12-1.49,2.48s1.08.49,1.08.49l1.49-.54,2-2.2,3.42-1a10.22,10.22,0,0,1,2,1.39,14.27,14.27,0,0,1,.27,2.61,17,17,0,0,1-1.75,1.85l1.07.94s2-.27,2.21-.36a13.7,13.7,0,0,1,3.06-1,8,8,0,0,1,2.52.31,3.65,3.65,0,0,1,.18,1.31,8.75,8.75,0,0,1-1,2.2c-.45.77-.26,1.4-.13,1.49s1,.13,1.62.27a6.77,6.77,0,0,0,2.2,0,8.54,8.54,0,0,0,1-1c.65-.42,1.31-.81,2-1.17l1.44-.45,1.13-.18c.31,0,.76-.22.81-.4a4.18,4.18,0,0,0,0-1,5,5,0,0,0-.31-.81,4.34,4.34,0,0,1-.27-1.13v-1l.54-1.13s.22-.72.54-.85a8.36,8.36,0,0,1,1.89-.68,3.35,3.35,0,0,1,1.39-.13c1.39,0,.81.22,1.13.13a6.56,6.56,0,0,1,1.53.09l.63-1.12.09-2.3,2.92-.76a10,10,0,0,1,1.53.18,5.7,5.7,0,0,0,2,1c.64,0,1.62-1.4,1.62-1.4l-.09-1-.94-.72L137.65,74s-2.7.45-3.69.72-3,1-3,1L128.88,77s-.58,1.12-.81,1.21-2.88.36-2.88.36l-1.33,1.86c-.09.13-1,1.44-1.26,1.8a9.33,9.33,0,0,0-.54,1.8,17.92,17.92,0,0,1-.09,2.07,5.83,5.83,0,0,1-1.08.76l-.72.14a8.81,8.81,0,0,1-.5-1.13c0-.13-.27-2-.27-2l-.54-1.3a8.41,8.41,0,0,0-1.57-.32,12.2,12.2,0,0,0-1.71,0c-.41.09-2.21.22-2.21.22l-.22-.18a20.54,20.54,0,0,1-1-2.25L110,78.37l-1.26-1.48-3.15.22-1.53,1-1.89-.22-1.71-1.31-2.2-.4-2.7-.05-1.85.18a16.3,16.3,0,0,0-2.2,1.13,9.08,9.08,0,0,1-2.93,1.08,7.56,7.56,0,0,1-2.2-.45l-.9-2.3s-.27-1.26,0-1.35a28.42,28.42,0,0,1,3.33-.31h2.52l2.34.22.86-.13.81-.45.22-.86-.27-.45" transform="translate(-13.5 -0.04)"/><path class="cls-1" d="M321.18,202.47" transform="translate(-13.5 -0.04)"/><path class="cls-2" d="M187.7,190.36l1.68,6.12,3,6.6,2.52,5.52,3.36,5.4,7.56,6.72,5.88,5.4,4.8,4.68,10.08,9.6,7.32,5.4,4.2,4.2,5.52,5.28,4.44,7.08,2.52,5.88L251.9,277l-.84,6.48-1.44,2.88,2.28,1.56,7.32,2.52,4.92,2.52,1.92,5.4-1.32,7.11-4.44,2.16h-4.92l-4.68-1.2-1.92,1.2.12,4.56,9.12,15.6,6.84,5.52,5,6.36,13.44,12.24,4.44,6.24s5.52,8.28,5.52,8.64,6.24,14,6.24,14l1.2,5-.84,16.2-1.68,5.28-3.12,4.08-2.12,2-1.56-1.2-2,2.64,2.88.6s4.32-.48,4.68,0,7.2.84,7.2.84h3.24l1.32-1.08-.72-12.6L307.14,391l-1.68-7.68-2.76-10.44-2.16-4.68.24-.84s.12-.12.6-.12a8.63,8.63,0,0,1,2.16,1.2l.72,3.24,2.64,5.52.12,4,.36,1.56,3.55-.66,2-.25s.8.22.85.25a2,2,0,0,1,.27.57c.07.21-.3.69-.42.82a3.44,3.44,0,0,1-1.22.32c-.49.09-1.5.3-2,.38a4.63,4.63,0,0,0-1.63.43,2.51,2.51,0,0,0-.78.93,2.8,2.8,0,0,0,0,1,1,1,0,0,0,.69.48,7.4,7.4,0,0,0,1.63,0,9.38,9.38,0,0,1,1.05-.12,12.75,12.75,0,0,0,1.95-.19c.12-.06.26-.09.43.12s.19.25.2.4.12.22-.13.63,1.46.19-.59.54a13.09,13.09,0,0,1-2.79.29l-1.38.07a4.43,4.43,0,0,0-.72.09.47.47,0,0,0-.34.31,2.41,2.41,0,0,0,.49.69,3,3,0,0,0,.82.36c.31.07.22-.06,1.1,0,.5,0,1,.08,1.51.08h1.46l.44.05h.09l.34.68a1.06,1.06,0,0,1-.37.57,4,4,0,0,1-1.64.31,15.88,15.88,0,0,0-1.69,0c-.18.11-1,.81-.83,1.31a6.15,6.15,0,0,1,.47,1.39,7.72,7.72,0,0,1-.13,2.09c0,.07.22,3.85.22,4.14a15.64,15.64,0,0,0,.21,2.16,18.52,18.52,0,0,0,1.91,1.26c.13.09.88.25.34.68s-1,.31-1,.7-.36.92-.43,1.37-.36,1.33-.06,1.55a3.07,3.07,0,0,0,1.39.68c.61.09,1.82-.21,2.36-.18s.54-.09.81.31.39.77,0,1.06a3.18,3.18,0,0,1-1.3.47,3.86,3.86,0,0,1-1.22.11,5.06,5.06,0,0,0-1.1.09c-.18.07-.56.36-.56.68v1.78a10.26,10.26,0,0,1-.13,1.23c0,.09,0,.77.27,1a3.39,3.39,0,0,0,1,.47c.43.16.56.16,1.15.34s1.19.16,1.64.32,1.44.42,1.87.6a3.06,3.06,0,0,0,1.12.18c.41.05,1-.06,1-.36v-1.19c0-.36-.23-1.21-.27-1.66s-.25-2.12-.3-2.41-.69-2.39-.69-2.39l-.72-3.75s-1.49-2.77-1.51-2.86-.29-1.08-.29-1.08l.78-.5a3.83,3.83,0,0,1,.75.23c.13.09,2.47.79,2.47.79s1.35,1.21,1.62,1.48,2,1.62,2.43,2.14a26.92,26.92,0,0,0,2.39,2,6.46,6.46,0,0,0,1.32-1.58,29.34,29.34,0,0,0,.68-3.06s1.6-3.17,1.66-3.49.21-.94.77-1a3.46,3.46,0,0,1,1.82.7c.11.18.9.56,1.1,1s.68,1.08.9,1.51a37.77,37.77,0,0,1,.77,4.09,13.33,13.33,0,0,0,0,2.68,9.7,9.7,0,0,1,.61,1.66c.06.25.45,1.29.45,1.29s1.1.22,1.17.22a6.93,6.93,0,0,0,1-.34c.09-.06.25.07.34-.36s-.3-1.93-.21-2.49.22-1.85.22-1.85l.26-3,.31-3.57.09-2.23-.11-2.88-.56-2.81-.61-3.67-.86-4-5.62-17.91-.81-2.61-1.17-1.35h-1.17l-3.69.9-6.75.18c-.27,0-4.59-1.26-4.59-1.26l-6.39-3.33-5.67-4.23-1.89-3.15L297.94,348l-.27-5.4.09-6.84,1.17-3.69.54-1.62-.55-1.06-1.49-.79-4.28-2.63L290,323l-1.66-2.3-2-3.77-.82-1.65-1.33-2.95-.47-1.37-.93-2-1.17-2.41-1.09-2.7-.31-2,.1-2.74.63-4.31.53-2,2.41-6.33.86-2-.54-.86-3.78.18-3.65-.31-9.4-4.55-3.61-4.14L262.64,271l.32-3.78,2-2.65.49-1.22-3.19-2-4.59-4.64-5.13-4.5-2.88-2.7-6.48-7.87L239.53,232l-1.39-2.79-1.27-4-.17-1.66-.23-.77-3.28-1.3-2.48-2.34-2.34-3.6-.81-2.43v-2.21l.72-4.63,1.58-1.8,2.42-2.52,2.7-2.34,2.61-2.16,1.94-1.26,2.07-.5,1.35.05,1.08-1.4,1.31-3.06,1.26-3,3.24-6.3.49-3.33,0-1.62L248,178.3a11.42,11.42,0,0,1-1.67,1.26,5.91,5.91,0,0,1-2.11.45c-.18,0-3-.9-3-.9q-.3-.66-.54-1.35c0-.13-.54-1.8-.54-1.8l-.63-.85s-1.31.09-1.44.49a12.87,12.87,0,0,0-.41,1.94c0,.22-.81,3.42-.81,3.42l-1.35,3s-2,3.42-2.11,3.74-1.71,6.7-1.71,6.7l-2.34,4.46s-3.38,5.17-3.38,5.31a32.79,32.79,0,0,1-1.75,3.51c-.32.4-1.89,2.7-2,2.83l-2.74,3a22,22,0,0,0-.72,2.79c0,.68.09,2.88.09,2.88a18.57,18.57,0,0,0,1.62,1.58,6.31,6.31,0,0,0,1.8,1.39,21.79,21.79,0,0,0,2.43.72c1.62.49,2.83.81,2.83.81l1.94,1-.45,1.39s-1.62.14-1.76.14a42.11,42.11,0,0,1-4.41-1.17c-.49-.27-5.31-3.42-5.35-3.56s-1.71-3.1-1.71-3.1l.4-3-.45-2.57-4.63-4.09-6.11-6.25L196.7,186.4l-.81-3.6-2.83-1-2.43-1.31h-1.26a2.76,2.76,0,0,0-.72,1,20.92,20.92,0,0,1-1,2,7.2,7.2,0,0,0-1,1A53.39,53.39,0,0,0,187.7,190.36Z" transform="translate(-13.5 -0.04)"/><path class="cls-2" d="M332.6,174.16a14.81,14.81,0,0,0-1.62-.42c-.61-.09-.92-.14-1.14,0-.51.31-.35,1.23-.36,2.58A19.43,19.43,0,0,1,329,180c-.39,1.64-.7,1.51-1.14,3.24-.37,1.46-.13,1.47-.54,3.6-.33,1.72-.55,2-.78,3.54-.18,1.13-.14,1.55-.24,2.7a33.73,33.73,0,0,1-1,5.82,37.71,37.71,0,0,1-1.5,4.62c-.72,1.79-.84,1.69-1.68,3.66-1.41,3.3-1.12,3.73-2.28,5.94-.92,1.75-1.19,1.65-1.92,3.3a13.31,13.31,0,0,0-1.2,4.14,13,13,0,0,0,.18,3.84c.4,2.47.91,2.65,1.62,5.46a28.86,28.86,0,0,1,.78,5.7c.17,2.5,0,3.42-.42,4.26a5.84,5.84,0,0,1-2,2.16c-3.5,2.51-2.62,3-7.44,6.66-1.41,1.07-3.82,2.59-8.64,5.64-2.88,1.82-4.32,2.73-4.92,3.06-2.53,1.4-4.24,2-11.64,4.68-3.43,1.23-6.72,2.91-10.26,3.78a27.24,27.24,0,0,0-7.74,3.72c-.45.3-1.32.91-1.2,1.32s1.83.43,2,.42c1.85-.09,3-.9,3.12-.66s-.76,1.23-1.5,1.86-1.21.77-1.38,1.26a2.42,2.42,0,0,0,.54,2c.73,1.06,1.58,1.22,3.18,2.16s1.4,1.19,2.76,2a13.85,13.85,0,0,0,4.8,1.62c2.15.4,3.69.68,5.46,0a7.8,7.8,0,0,0,2.34-1.5,15.17,15.17,0,0,0,3.54-4.86c.77-1.39,2.37-2.94,5.58-6.06A105.26,105.26,0,0,1,307.84,259c2.31-1.7,4.62-3.38,7.92-5.46,4.17-2.62,5.42-3,9.24-5.64,2.07-1.42,3.51-2.53,6.36-4.74,4.34-3.37,2.39-2.11,6.6-5.46,2.12-1.68,4.82-3.75,5.1-5.94.08-.65.14-1,.24-1.8.3-2.16.35-2.39.54-2.7.51-.85,1-.64,1.92-1.62a5.47,5.47,0,0,0,1.2-2.22c.44-1.73-.54-2.31-.3-3.9s1.24-2.41,2.34-3.42a13.6,13.6,0,0,1,4.26-2.52c3.52-1.54,4.05-1.37,6-2.28s3.45-2.17,6.42-4.68,2.51-2.46,5.76-5.28c3.5-3,5.25-4.56,7.2-5.52a21.69,21.69,0,0,0,4-2.22,7.77,7.77,0,0,0,3.06-3.48c.22-.58.81-2.12.12-2.94s-2.66-.41-4.26,0a15.38,15.38,0,0,0-4.26,1.8c-3.12,1.94-3.32,3.29-5.82,5.1-2,1.45-2.29.89-6.18,2.7-2.7,1.26-2.73,1.61-9.12,5.46-3.68,2.22-3.8,2.18-7.08,4.2-2.1,1.29-4,2.43-6.36,4.08-5.07,3.47-3.85,3.18-7.14,5.28-3.05,1.94-5.2,2.89-5.34,4.74a4.44,4.44,0,0,0,.42,2c.25.55.55.95,2.28,2.52a18.07,18.07,0,0,0,2.82,2.34c1.33.62,2.25.47,2.46,1.08a1.67,1.67,0,0,1-.78,1.62c-1.33.95-3.68,0-5-.9s-2.14-2.45-3.66-5.46a6.77,6.77,0,0,1-.9-2.94,5.87,5.87,0,0,1,.54-2.64c.48-1,1-1.4,2.64-2.94,2-1.91,3-2.88,3.36-3.9.4-1.2.08-2-.06-3.42-.26-2.76.44-4.5,1.08-7.08,2-7.93-.43-8.94,1.8-15.12,1.84-5.11,2.76-7.66,3-8.16a13.71,13.71,0,0,0,1-3.66c.18-1.31.09-1.84-.24-2.22a2.81,2.81,0,0,0-2.16-.6,4,4,0,0,0-2.1.42c-1.4.82-1.09,2.3-2.34,2.76A3.51,3.51,0,0,1,332.6,174.16Z" transform="translate(-13.5 -0.04)"/><path class="cls-1" d="M193.85,212.08c-.24-.48-.59-1.2-.33-1.5a.65.65,0,0,1,.72-.09c.44.2.46.81.63,1.38a8.45,8.45,0,0,0,1.77,2.34c.65.73,1.07,1.16,2.25,2.37l1.89,1.95a64.55,64.55,0,0,0,5.76,5.58c1.52,1.18,1.32.77,2.49,1.74,2.12,1.75,2.69,3,4.59,5.1a45.75,45.75,0,0,0,3.63,3.33c5.29,4.72,5.58,5.28,8.49,7.74,3.43,2.9,3.33,2.39,6.27,4.86a65.31,65.31,0,0,1,9.9,10.32,50.52,50.52,0,0,1,6.15,10.38,20.19,20.19,0,0,1,1.47,4.47c.5,2.62.25,4.57-.18,8a11.16,11.16,0,0,1-1.11,4,4.69,4.69,0,0,1-1.77,2.19c-.78.45-1.8.39-3.81.27-1.54-.1-3.18-.2-3.24-.63,0-.24.45-.37,1.2-1a9.21,9.21,0,0,0,1.5-1.68c1-1.33,1.15-2.82,1.5-5.58a9.85,9.85,0,0,0,.06-3.9,15.78,15.78,0,0,0-1-2.4c-.31-.68-.74-1.58-1.44-2.91-1.18-2.25-1.3-2.22-1.8-3.3-.86-1.85-.53-2-1.23-3.54a18.75,18.75,0,0,0-3.24-4.65c-.75-.89-.69-.75-2.7-2.94s-2-2.22-3.33-3.69a26.29,26.29,0,0,0-4.08-3.81c-.86-.62-.75-.44-1.65-1.08-2.15-1.53-2.76-2.52-4.74-4.23-1.17-1-1.38-1-2.85-2.16-3.68-2.85-3.45-3.61-6.93-6.51-2.57-2.14-4-2.83-5.88-5-1-1.14-1.77-2.1-1.77-2.1-1.09-1.37-1.27-1.75-2.34-3a14.86,14.86,0,0,1-1.35-1.62,13.28,13.28,0,0,1-1.17-3.09c-.29-.95-.25-1-.45-1.5-.44-1.11-.66-1-1-2a7.47,7.47,0,0,0-.63-1.71A1.26,1.26,0,0,1,193.85,212.08Z" transform="translate(-13.5 -0.04)"/><path class="cls-1" d="M202.76,239.05c-.44-.66-.27-1.15-.42-2.52-.12-1-.22-.79-.63-2.85s-.25-1.93-.54-3c-.41-1.5-.83-2.06-.6-2.28.42-.39,2.28,1,2.46,1.14a15.13,15.13,0,0,1,3,3.24c.12.15,1.2,1.34,3.36,3.72a51.87,51.87,0,0,0,10.2,8.85c2.65,1.71,3.41,1.78,5.13,3.39,1.57,1.47,1.56,2,4,5s2.51,2.51,4.56,5.07a30.77,30.77,0,0,1,3.69,5.55,24.65,24.65,0,0,1,1.37,3.11c.82,2.39.52,2.71,1.32,4.65a13.39,13.39,0,0,1,1.23,3.12,11.52,11.52,0,0,1,0,2.49c-.09,1.18-.23,1.14-.33,2.28-.16,1.77.16,2.15-.24,3.06a3.56,3.56,0,0,1-1.08,1.38c-1,.78-2.19.71-3.51.63a5.13,5.13,0,0,1-3.36-1,2.7,2.7,0,0,1-1.05-1.86,2.73,2.73,0,0,1,.54-1.53,21.83,21.83,0,0,1,1.86-2.52c.49-.74.55-1.7.75-3.57a13.87,13.87,0,0,0,.12-2.88,11.15,11.15,0,0,0-.81-3.6,12.7,12.7,0,0,0-2.37-3.48c-1.79-2.11-3.31-3.58-3.63-3.9-2.59-2.53-2.32-2.6-5.49-5.88a114.34,114.34,0,0,0-9.24-8.64,35.6,35.6,0,0,0-5.55-4.14c-1.12-.61-2.13-1.41-3.27-2A3.37,3.37,0,0,1,202.76,239.05Z" transform="translate(-13.5 -0.04)"/><path class="cls-1" d="M205.28,247.66a3.39,3.39,0,0,1-1.38-4,1.34,1.34,0,0,1,.63-.84c.76-.32,1.78.64,3.33,2,1.16,1,2.42,1.93,3.54,3,5.38,5.13,3.9,3.63,5.79,5.49,4.21,4.15,3.9,4.05,6.12,6.09a50.66,50.66,0,0,1,4.08,3.81c1.68,1.88,2.94,3.31,3.69,5.52.44,1.3.31,1.71,1,3.78a8.07,8.07,0,0,1,.66,2.55,5.25,5.25,0,0,1-.54,2.64,3,3,0,0,1-1.23,1.44,2.82,2.82,0,0,1-2,.12,5.39,5.39,0,0,1-3-2.19,4,4,0,0,1-1.26-2.79c0-.35.12-.46.63-1.53a12.4,12.4,0,0,0,1.17-2.85c.05-.76-.47-1.59-1.5-3.21a25.16,25.16,0,0,0-1.77-2.55,28.29,28.29,0,0,0-5.7-5.76c-3-2.21-3.77-1.57-5.43-3.48-1.5-1.73-2.28-2.63-2.73-3.9a5.2,5.2,0,0,0-1.29-2.13,4.49,4.49,0,0,0-.93-.69C206.32,247.71,205.94,247.94,205.28,247.66Z" transform="translate(-13.5 -0.04)"/><path class="cls-1" d="M223.43,271.21c-.71.15-1.39-1.62-3-3.69-1.43-1.87-2.08-2-2.64-3.39-.2-.5-.26-.85-.75-2.1-.41-1.06-.6-1.4-.48-1.5.3-.25,2.19,1.55,2.58,1.92a27.67,27.67,0,0,1,2.73,3.09,10.73,10.73,0,0,1,1.71,2.7,7.32,7.32,0,0,1,.36,1.59,1.36,1.36,0,0,1-.09,1.08A.91.91,0,0,1,223.43,271.21Z" transform="translate(-13.5 -0.04)"/><path class="cls-1" d="M232.7,293.92h0v.48a2.82,2.82,0,0,1-.8,1.68c-1.49,1.4-4.2.17-4.44.06-1.4-.66-3.38-2.33-3.12-4.44a3.17,3.17,0,0,1,2-2.7c1.08-.24,1.32.82,3.66,1.44,1.21.32,2.37.36,2.58,1a4.21,4.21,0,0,1,.12,1h0a4.66,4.66,0,0,0,0,1.18v.2a.19.19,0,0,1-.18,0h-.33" transform="translate(-13.5 -0.04)"/><path class="cls-1" d="M239.06,299.8c-.52.18-.9-.5-2.4-1.32-1-.54-1.23-.47-1.44-.84-.41-.71.31-1.32.48-2.64.2-1.54-.49-3-1.44-4.92-.66-1.36-1.06-1.77-.84-2.16s.75-.57,3.72-.12,3.46.85,5.64,1.2,2.32.06,5.28.36a37.49,37.49,0,0,1,5.16.84c2.86.72,6.73,1.68,9.24,4.92.76,1,2.55,3.29,1.92,6a6.52,6.52,0,0,1-3.48,4.08c-.9.42-1.55.46-6.48.12-4.39-.3-5.54-.45-5.64-1,0,0-.06-.3,2.28-2.28h0s-1.64-1.34-2.64-1c-.7.27-.44,1.14-1.44,1.92-.1.08-1.16.89-1.8.48a1.27,1.27,0,0,1-.36-1.44c.32-.83,1.48-.92,1.44-1.2s-1.1-.53-2.16-.24c-1.34.37-1.79,1.41-2.4,1.2s-.6-1-.6-1.08c-.13-1.46,1.74-3.09,2.88-2.76a1.3,1.3,0,0,1,.84.84c-.07.06-1.2-1.87-2.64-1.8a3.65,3.65,0,0,0-2.4,1.68C239.37,299.34,239.41,299.68,239.06,299.8Z" transform="translate(-13.5 -0.04)"/><path class="cls-1" d="M281.4,362.35c-1.27-2-2.32-3-5.57-6.12-4.15-4-8.38-8.11-11.84-11.75a77.87,77.87,0,0,1-7.65-8.68c-3.77-5.31-4.35-8.18-7.83-11.3a9.51,9.51,0,0,1-2.43-2.92c-.93-1.81-.57-2.7-1.31-5.45-.2-.78-.75-2.11-1.84-4.77-1.37-3.35-2.07-4.75-1.39-5.71a2.11,2.11,0,0,1,1.26-.77,2.82,2.82,0,0,1,2.34.81,4.29,4.29,0,0,1,.85,2.61,40.16,40.16,0,0,0,1.49,6A26.08,26.08,0,0,0,249,318a33.76,33.76,0,0,0,5.76,9.23c1,1.11,2,2.06,4.1,4,1.47,1.36,2,1.81,3,2.7a74.53,74.53,0,0,1,5.53,5.71c3.4,3.7,3.32,3,7.52,7.29,3.88,4,3.46,4,5.71,6a31.42,31.42,0,0,1,4.46,4.32,25.83,25.83,0,0,1,2.43,3.69c2.76,4.76,4.62,8.73,5.22,10s.05.18,3.19,7.52a33.31,33.31,0,0,1,2.48,7,28.33,28.33,0,0,1,.49,3.78,32.89,32.89,0,0,1-.49,10.84,21.5,21.5,0,0,1-1.35,3.83,6.07,6.07,0,0,1-1.44,2.38c-1,.82-2,.56-4.95.54a26.36,26.36,0,0,0-6.08.32c-1.51.38-3.09.4-4.63.63-.37.06-.72.11-.9-.09-.48-.54,1-2.18,2.7-5.45,1.36-2.63,1-2.73,1.93-4,1.53-2,3.27-2.73,3-3.55-.17-.53-1-.42-2-1.44a5.77,5.77,0,0,1-.95-1.35c-.71-1.55.14-2.77.23-4.73,0-.88-.11-1.13-.9-4-1.77-6.46-1.37-6.46-2.25-8.1a42.44,42.44,0,0,0-3.51-4.5,8.82,8.82,0,0,0-3.1-2.75,5.22,5.22,0,0,0-2.53-.63c-1.09.06-1.62.54-3.23.63-.72,0-1.07.06-1.31-.09-.87-.55-.39-2.37,0-5.62.67-5.57-.28-4.16.22-8a3.42,3.42,0,0,0-.44-2.61,2.16,2.16,0,0,0-1.71-.81,1.93,1.93,0,0,0-1.54,1.08c-.37.87.26,1.58.82,3.24.14.43.31,1.62.67,4,.48,3.21.45,3.78.09,4.36s-.94.82-1,1.49.4.9.54,2.07c.08.71,0,1-.09,1a1.52,1.52,0,0,1-1.35.63c-.58,0-.75-.36-1.71-.54-.36-.06-.55-.09-.63,0-.24.29.39,1.51,1.4,2.25s1.54.53,1.84,1.17a1.33,1.33,0,0,1-.18,1.44,1.38,1.38,0,0,1-1,.27,8.32,8.32,0,0,1-1.4-.22c-.63-.07-1.2-.14-1.44.18a1,1,0,0,0,.09,1.08c.31.43.73.24,1.53.67a4.32,4.32,0,0,1,1.17,1,3.43,3.43,0,0,1,.81,1.31,1.49,1.49,0,0,1,.05,1.17c-.3.53-1.12.57-1.44.58-.88,0-1.05-.31-2-.36-.52,0-1.33,0-1.66.45a1.12,1.12,0,0,0,0,1.22c.3.42.88.47,1.71.54s1.31-.08,1.76.22a1.53,1.53,0,0,1,.53.72,2.76,2.76,0,0,1-.09,2c-.63,1.76.14,2.55-.49,7.92-.32,2.74-.36,1.19-.63,3.2-.1.72-.13,1.2-.45,1.35s-.76-.25-2.16-.9c-.79-.37-1.19-.55-1.49-.45-.64.22-.43,1.09-1.21,2.07-.63.79-1,.5-2.07,1.44a17.19,17.19,0,0,0-1.71,2c-.77,1-1.1,1.47-1.8,1.67a2.11,2.11,0,0,1-1,0c-1-.24-1.11-1.36-2.11-2.7s-1.31-.74-3.2-2.65c-.85-.85-1.23-1.42-2.07-1.58a2,2,0,0,0-1.71.41,1.78,1.78,0,0,0-.45,1.89c.18.41.44.42.76.85a3.15,3.15,0,0,1,.46,1.94c.14,3.3.14,3.27.13,3.37a7,7,0,0,1-.81,3.33c-.35.59-1,1.76-2.2,1.94-.85.13-1.51-.32-2.8-1.22s-2.06-1.42-2.29-2.25c-.28-1,.39-1.43,1.4-3.82,1.16-2.79.77-3.43,1.89-4.77a18.42,18.42,0,0,1,2.31-1.81,28.23,28.23,0,0,1,2.74-2c2.46-1.44,3.19-.61,4.82-1.85,1.08-.81.61-1.06,2.61-3.33,1-1.12,1.21-1.17,2.66-2.74.58-.63,1.35-1.48,2.25-2.61a16.75,16.75,0,0,0,2.78-4.28c.29-.71.33-1.06.72-3.78.87-5.88.9-5.73,1-6.66a28.61,28.61,0,0,0-.18-5.85,39.48,39.48,0,0,0-1.84-6.84,28.07,28.07,0,0,0-2.48-6.16c-.39-.65-.89-1.4-1.89-2.88a22.54,22.54,0,0,1-2.43-3.87,13.69,13.69,0,0,1-.72-3.74c-.39-3.4.07-3.57-.32-5.8-.47-2.73-1.52-4.51-1-4.82.24-.14.68.16.9.32,1.24.87,1.52,2.21,2,3.46a16.72,16.72,0,0,0,2.65,4.5c1.28,1.52,1.78,1.39,3.25,3.11a23.47,23.47,0,0,1,2.07,3.06c1.46,2.26,3.46,4,7.46,7.26,2.77,2.31,2.33,1.72,3.83,3.06s1.8,1.78,6.48,7.06c2.95,3.33,3.4,3.81,4.14,5s1.06,2,2.25,3.78c1.34,2.06,1.57,2.08,2.43,3.42a28.5,28.5,0,0,1,3.06,7.24,41.33,41.33,0,0,1,1.26,4.77,34.75,34.75,0,0,1,.49,3.65c.41,4.54.61,6.82-.27,8.55-.66,1.32-1.66,2.24-1.75,4,0,.43-.06,1.37.49,1.71a1.3,1.3,0,0,0,1.09,0c.72-.3,1-1.09,1.35-2.07a27.8,27.8,0,0,0,1.07-3.69,30.76,30.76,0,0,0,.55-4.59,37.33,37.33,0,0,0-.37-6.93,29.55,29.55,0,0,0-2.06-8,32.36,32.36,0,0,0-2.39-4.46" transform="translate(-13.5 -0.04)"/><path class="cls-1" d="M130.28,419.92c.58,1.71,7,.79,12.48.36,6.06-.48,3.4.26,19.86.24,11.54,0,14.51-.37,25.92-.6,6.52-.13,9.84-.1,29.16.06l37.56.3c20.08.11,35.81,0,52.5-.12,18.93-.13,18.79-.22,34.56-.3,16.46-.08,28.7,0,42,0,17.5.06,35.11-1.57,52.5.36a1,1,0,0,0,.78-.18,1,1,0,0,0,.18-.78c-.16-.79-1.74-1.21-3.9-1.56a30.5,30.5,0,0,0-4.86-.54c-6.9.16-3.64-.75-20.1-.18-6.66.23-13.37-.42-20,.42a11.37,11.37,0,0,1-4.92-.3c-2.43-.74-2.36-1.73-4.08-2-3-.53-4.18,2.28-7.74,1.8-.32,0-2.57-.35-3-1.62-.29-.87.48-1.49.3-2.7a3.82,3.82,0,0,0-1.62-2.34c-2.08-1.35-4.22.86-9.24.72-1.07,0-3.49-.1-3.84-1.14,0-.15-.16-.64,1.5-2.7,1.8-2.23,3-3,2.82-3.54s-2-.28-2.28-.24-1.85.33-4.68,2.4a15.64,15.64,0,0,0-4.38,4.08c-.9,1.35-.8,1.81-1.56,2.28-1.53.94-2.69-.47-5,.12-2,.52-2.2,1.91-4,2a4.9,4.9,0,0,1-3.42-1.38c-2.94-2.92-.49-8.94-2-9.48-.67-.25-1.69.79-2.16,1.44-2,2.74-.13,6.48-1.26,7-.51.24-1.27-.36-2.46-1.32-2.46-2-2.8-3.51-4.08-3.54a2.32,2.32,0,0,0-2,1.26c-.41.81,0,1.46,1,4.5.81,2.55,1,3.57.78,4.74-.14.71-.15,1.25-.54,1.56-.73.58-2,.05-2.64-.18s-3.6-.35-9.42-.54a48.61,48.61,0,0,1-5.28-.24c-2.21-.25-2.3-.45-3.84-.6a25,25,0,0,0-7.32.6c-3,.55-3.77,1-6.12,1-1.3,0-3.53,0-3.84-.84-.23-.64.65-1.48,2.22-2.94,1.39-1.3,2.51-2.08,4.5-3.66,2.48-2,2.88-2.43,2.76-2.76s-.45-.53-2.94-.42a29.27,29.27,0,0,0-6.18.9c-4.22,1.17-5.52,2.36-7.2,1.56-.55-.26-1.51-.91-1.44-1.56,0-.4.45-.63.84-.9a30.14,30.14,0,0,0,2.28-2.52c1.73-2,1.36-3.27,3.48-6.78,1.29-2.13,2.2-2.94,1.86-3.48-.52-.82-3.3.08-3.78.24-2.08.68-2.73,1.5-5.28,2.94-2.86,1.61-2.67.92-4.26,2-2.67,1.87-3,3.66-5.4,4.26a3,3,0,0,1-2.4-.06c-1.1-.7-.67-2.22-1.92-4.8-.51-1.05-1-2.11-1.8-2.16s-1.44.94-2.22,2.16a24.2,24.2,0,0,0-2.28,4.86c-.94,2.56-1.12,3.59-1.92,3.78a2.07,2.07,0,0,1-1.74-.72c-1.37-1.22-.93-2.71-1.8-4.86-.8-2-2.49-4-3.36-3.72-.6.18-.8,1.92-1.2,5.4a9.7,9.7,0,0,1-1.14,4.44,3.37,3.37,0,0,1-1.56,1.56c-.73.29-1.49.15-3.84-.9-3.15-1.4-3.37-1.85-4.74-2.1-1.85-.34-2,.38-3.72.18-2.27-.26-2.33-1.58-6.42-4a46.5,46.5,0,0,0-6.12-2.4c-.66-.24-1.52-.53-2.1-.12-.83.58-.64,2.25-.54,3.12.19,1.67.72,1.93.84,3.48.07.86.19,2.38-.6,2.94s-2.06-.08-4-1-3.36-2-5.4-2.16c-.34,0-1-.07-1.14.24s.58.93.78,2a2.77,2.77,0,0,1-.84,2.58,2.68,2.68,0,0,1-1.8.48,5.44,5.44,0,0,1-2.64-1.08,13,13,0,0,0-3.9-1.14c-3.44-.7-6.85-.32-6.9.18,0,.29,1.09.29,1.92,1.32.66.81,1.1,2.21.6,3-.62,1-2.38.51-5.76.48a75.43,75.43,0,0,0-8.22.78c-3.27.4-5.45.81-6.72,1-7,1.18-13.63,1-19.86.78-9.89-.31-14.84-.46-15.06-.54-.51-.18-2.48-.9-3.6,0A1.85,1.85,0,0,0,130.28,419.92Z" transform="translate(-13.5 -0.04)"/><path class="cls-2" d="M346.44,334.47" transform="translate(-13.5 -0.04)"/><text class="cls-5" transform="translate(0 500.72)">ჯრტ მწვანე მოლი</text></svg>